<svg width="94" height="43" fill="none" xmlns="http://www.w3.org/2000/svg"><path fill-rule="evenodd" clip-rule="evenodd" d="M58.316 33.364c-5.463 4.026-13.38 6.174-20.197 6.174-9.558 0-18.163-3.535-24.674-9.415-.51-.462-.053-1.092.561-.732 7.026 4.087 15.712 6.547 24.686 6.547 6.051 0 12.709-1.253 18.83-3.85.925-.394 1.698.605.794 1.276z" fill="#fff"/><path fill-rule="evenodd" clip-rule="evenodd" d="M60.587 30.766c-.696-.892-4.616-.422-6.375-.213-.536.065-.618-.401-.135-.737 3.122-2.197 8.245-1.563 8.842-.826.597.74-.155 5.876-3.09 8.327-.45.376-.879.175-.678-.324.658-1.645 2.135-5.331 1.436-6.227zm-6.253-16.462v-2.136c0-.323.246-.54.54-.54h9.563c.307 0 .552.221.552.54v1.83c-.004.306-.262.707-.72 1.341l-4.955 7.075c1.841-.045 3.785.23 5.454 1.17.377.213.48.524.508.83v2.28c0 .311-.344.675-.704.487-2.942-1.543-6.85-1.71-10.103.016-.331.18-.679-.18-.679-.49v-2.165c0-.348.004-.941.352-1.47l5.74-8.232h-4.995c-.307 0-.553-.217-.553-.536zM19.452 27.631h-2.909a.55.55 0 01-.52-.495v-14.93c0-.3.25-.537.56-.537h2.714a.55.55 0 01.528.5v1.951h.053c.708-1.886 2.038-2.766 3.83-2.766 1.82 0 2.958.88 3.776 2.766.704-1.886 2.304-2.766 4.018-2.766 1.22 0 2.554.503 3.368 1.633.92 1.256.732 3.08.732 4.68l-.004 9.424a.55.55 0 01-.56.54h-2.905a.553.553 0 01-.524-.54v-7.914c0-.63.057-2.2-.082-2.798-.217-1.003-.867-1.285-1.71-1.285-.704 0-1.44.47-1.74 1.223-.298.753-.27 2.013-.27 2.86v7.914a.55.55 0 01-.56.54h-2.905a.55.55 0 01-.524-.54l-.004-7.914c0-1.665.274-4.116-1.792-4.116-2.091 0-2.01 2.39-2.01 4.116v7.914a.55.55 0 01-.56.54m53.77-16.277c4.317 0 6.653 3.707 6.653 8.42 0 4.555-2.582 8.168-6.653 8.168-4.24 0-6.547-3.707-6.547-8.327 0-4.648 2.337-8.261 6.547-8.261zm.025 3.048c-2.144 0-2.28 2.922-2.28 4.743 0 1.825-.028 5.72 2.255 5.72 2.255 0 2.36-3.142 2.36-5.057 0-1.26-.052-2.766-.433-3.961-.327-1.04-.978-1.445-1.903-1.445zm12.226 13.229h-2.897a.553.553 0 01-.524-.54l-.004-14.935a.55.55 0 01.56-.487h2.697a.557.557 0 01.52.417v2.284h.053c.814-2.042 1.956-3.016 3.965-3.016 1.305 0 2.578.47 3.396 1.76.761 1.194.761 3.203.761 4.648v9.398a.559.559 0 01-.56.471h-2.918a.55.55 0 01-.516-.47v-8.11c0-1.633.189-4.023-1.82-4.023-.708 0-1.359.475-1.682 1.195-.41.913-.462 1.821-.462 2.828v8.04a.56.56 0 01-.57.54M46.712 20.5c0 1.133.028 2.078-.545 3.084-.462.819-1.199 1.322-2.013 1.322-1.117 0-1.772-.851-1.772-2.107 0-2.48 2.222-2.93 4.33-2.93v.63zm2.933 7.09a.607.607 0 01-.687.07c-.966-.802-1.142-1.175-1.67-1.94-1.595 1.629-2.729 2.116-4.795 2.116-2.451 0-4.354-1.51-4.354-4.534 0-2.36 1.277-3.969 3.102-4.755 1.58-.695 3.785-.818 5.47-1.01v-.377c0-.691.054-1.51-.355-2.107-.352-.536-1.032-.757-1.633-.757-1.109 0-2.095.569-2.336 1.747-.05.262-.242.52-.508.532l-2.819-.303c-.237-.053-.503-.245-.434-.61.647-3.42 3.74-4.451 6.506-4.451 1.416 0 3.265.376 4.382 1.448 1.416 1.322 1.281 3.086 1.281 5.005v4.533c0 1.363.565 1.96 1.097 2.697.184.262.225.577-.013.773a123.59 123.59 0 00-2.23 1.931l-.004-.008M8.572 20.5c0 1.133.029 2.078-.544 3.084-.462.819-1.195 1.322-2.013 1.322-1.117 0-1.768-.851-1.768-2.107 0-2.48 2.222-2.93 4.325-2.93v.63zm2.934 7.09a.607.607 0 01-.687.07c-.966-.802-1.138-1.175-1.67-1.94-1.596 1.629-2.725 2.116-4.795 2.116-2.447 0-4.354-1.51-4.354-4.534 0-2.36 1.28-3.969 3.102-4.755 1.579-.695 3.784-.818 5.47-1.01v-.377c0-.691.053-1.51-.352-2.107-.356-.536-1.035-.757-1.632-.757-1.11 0-2.1.569-2.34 1.747-.05.262-.242.52-.504.532l-2.823-.303c-.238-.053-.5-.245-.434-.61.65-3.42 3.74-4.451 6.506-4.451 1.416 0 3.265.376 4.382 1.448 1.416 1.322 1.28 3.086 1.28 5.005v4.533c0 1.363.566 1.96 1.097 2.697.189.262.23.577-.008.773a123.59 123.59 0 00-2.23 1.931l-.008-.008" fill="#fff"/></svg>