<svg width="125" height="42" fill="none" xmlns="http://www.w3.org/2000/svg"><path fill-rule="evenodd" clip-rule="evenodd" d="M68.545 20.205s-1.198-.741-1.94-1.028c0 0-2.293-1.063-2.748-1.569 0 0-.894-.842-.37-1.82 0 0 .218-.641 1.163-.641 0 0 1.23.067 1.23 1.078v1.426h4.407l-.007-2.1s.339-3.439-5.192-3.59c0 0-4.35-.286-5.598 2.057 0 0-.49.522-.49 2.342v1.316s-.05 1.517.726 2.495c0 0 .438.641 1.517 1.348 0 0 2.192 1.18 3.507 1.856 0 0 1.327.758 1.153 1.964 0 0-.109 1.238-1.39 1.188 0 0-1.173-.053-1.173-1.267v-1.425h-4.697v2.07s-.131 3.958 5.904 3.958c0 0 5.767.117 6.036-4.062v-1.686c-.001 0 .203-2.561-2.038-3.91zm-22.566-7.752l-1.476 9.25h-.345l-1.41-9.167h-7.362l-.37 16.75h4.36l.052-12.62h.343l2.31 12.617h4.587L48.95 16.67h.304l.105 12.615h4.382l-.472-16.832h-7.29zm-25.95.07l-2.9 16.743h4.693l1.718-12.982h.386l1.717 12.982h4.692l-2.9-16.743H20.03zm98.472 7.451v2.47h1.204v2.651c0 1.296-1.108 1.32-1.108 1.32-1.347 0-1.296-1.231-1.296-1.231v-9.17c0-.946 1.195-.996 1.195-.996 1.147 0 1.155 1.127 1.155 1.127v1.394h4.418c.145-2.722-.398-3.38-.398-3.38-1.096-2.462-5.242-2.328-5.242-2.328-6.372 0-5.665 4.89-5.665 4.89v8.866c.137 4.585 6.416 4.12 6.522 4.116 2.792-.31 3.636-1.197 3.636-1.197a2.717 2.717 0 00.976-1.375c.222-.465.277-1.947.277-1.947v-5.21h-5.674zM103.855 22.7h-.192l-4.484-10.241h-5.365v16.829h4.367l-.262-10.24h.195l4.646 10.24h5.201v-16.83h-4.421l.315 10.242zm-20.699 2.395s.063 1.381-1.217 1.381c0 0-1.347.072-1.347-1.347l-.014-12.66H75.79v12.56s-.491 4.753 6.217 4.753c0 0 5.83.07 5.83-4.535V12.469h-4.68v12.625zM10.9 20.204s-1.196-.74-1.938-1.026c0 0-2.292-1.063-2.747-1.57 0 0-.894-.843-.37-1.82 0 0 .218-.64 1.162-.64 0 0 1.23.067 1.23 1.078v1.426h4.41l-.009-2.1s.337-3.44-5.191-3.59c0 0-.417-.028-1.028.003 0 0-3.35.18-4.547 2.017-.007.014-.017.024-.024.036 0 0-.489.522-.489 2.343v1.316s-.05 1.517.725 2.495c0 0 .438.64 1.518 1.348 0 0 2.19 1.18 3.506 1.856 0 0 1.329.756 1.153 1.964 0 0-.109 1.238-1.39 1.187 0 0-1.172-.052-1.172-1.267v-1.425H1v2.071s-.131 3.959 5.904 3.959c0 0 5.765.117 6.036-4.063v-1.684c0-.001.202-2.564-2.04-3.913z" fill="#fff"/></svg>